<svg xmlns="http://www.w3.org/2000/svg" viewBox="0 0 16 16">
  <path d="M8.709 12a.709.709 0 1 0-1.419 0 .709.709 0 0 0 1.419 0m-4-8A.709.709 0 1 0 3.29 4a.709.709 0 0 0 1.419 0m8 0a.709.709 0 1 0-1.419 0 .709.709 0 0 0 1.419 0m1.25 0c0 .864-.56 1.595-1.337 1.855.024 1.068-.141 1.807-.62 2.253a1.66 1.66 0 0 1-.774.394 4 4 0 0 1-.325.06c-.102.015-.18.027-.26.042a.6.6 0 0 1-.119.01H8.63v1.532a1.958 1.958 0 1 1-1.25-.003V8.615H6.166c-1.211.072-2.058-.19-2.487-.917-.193-.328-.256-.686-.28-.993-.022-.286-.014-.602-.014-.846a1.959 1.959 0 1 1 1.25-.009c0 .3-.008.53.01.757.018.225.058.365.112.456.063.107.276.37 1.351.304l.04-.002h4.328l.237-.04c.093-.013.165-.025.23-.04.123-.03.175-.061.207-.091.065-.061.248-.319.222-1.34A1.958 1.958 0 1 1 13.959 4"/>
</svg>
