<svg xmlns="http://www.w3.org/2000/svg" viewBox="0 0 16 16">
  <path d="M14 7.975c.344 0 .624.28.623.626-.002 1.206-.017 2.184-.143 2.967-.13.8-.386 1.463-.918 1.996-.575.574-1.302.827-2.188.946-.868.117-1.978.115-3.375.115-1.396 0-2.507.002-3.375-.115-.886-.12-1.613-.372-2.187-.946-.575-.575-.827-1.303-.947-2.189-.116-.868-.115-1.978-.115-3.375 0-1.396-.001-2.507.115-3.375.12-.886.372-1.614.947-2.188.532-.532 1.195-.789 1.995-.918.782-.127 1.76-.142 2.967-.144a.625.625 0 0 1 .002 1.25c-1.227.002-2.102.02-2.769.128-.648.105-1.03.285-1.311.567-.304.304-.49.724-.591 1.471-.103.766-.105 1.777-.105 3.21 0 1.43.002 2.442.105 3.207.1.748.287 1.168.59 1.472.304.303.724.49 1.471.59.766.104 1.777.105 3.208.105s2.443-.002 3.208-.104c.748-.1 1.167-.288 1.471-.591.282-.282.462-.664.567-1.313.108-.666.126-1.542.128-2.768 0-.345.281-.625.626-.624m-3.322-6.562c.235-.003.925-.012 1.601.022.337.016.687.044.983.093.147.025.297.057.433.102.087.029.214.077.335.161l.116.098.097.117c.085.12.134.247.162.335.045.135.077.285.101.433.05.296.077.647.094.984.034.677.025 1.367.021 1.602a.626.626 0 0 1-1.25-.017c.004-.235.012-.89-.02-1.524q-.006-.118-.016-.231L7.81 9.147a.625.625 0 0 1-.887-.882l5.533-5.567-.238-.015a25 25 0 0 0-1.52-.02.625.625 0 0 1-.019-1.25"/>
</svg>
