<svg xmlns="http://www.w3.org/2000/svg" viewBox="0 0 16 16">
  <path d="M.89.891a.626.626 0 0 1 .886 0l3.26 3.26q.075.057.131.133l5.179 5.177a.6.6 0 0 1 .154.142q.011.016.02.034l4.589 4.588a.625.625 0 0 1-.884.884l-2.86-2.86a5.9 5.9 0 0 1-2.74 1.008v.784H10a.626.626 0 0 1 0 1.25H6a.625.625 0 1 1 0-1.25h1.375v-.783a5.96 5.96 0 0 1-5.334-5.925.625.625 0 0 1 1.25 0 4.709 4.709 0 0 0 7.17 4.013l-.556-.558A3.9 3.9 0 0 1 8 11.291a3.96 3.96 0 0 1-3.959-3.958V4.925l-3.15-3.15a.626.626 0 0 1 0-.884m11.818 6.442a.625.625 0 1 1 1.25 0 5.94 5.94 0 0 1-1.011 3.323.625.625 0 0 1-1.037-.698c.504-.75.798-1.652.798-2.625m-2 0v-2.68A2.697 2.697 0 0 0 8 1.959c-1.021 0-1.88.524-2.341 1.34a.625.625 0 0 1-1.088-.616C5.254 1.472 6.53.708 8 .708a3.947 3.947 0 0 1 3.957 3.946v2.68a3.8 3.8 0 0 1-.444 1.784.626.626 0 0 1-1.11-.577 2.5 2.5 0 0 0 .304-1.208m-5.417 0A2.71 2.71 0 0 0 8 10.041c.342 0 .667-.068.968-.188L5.291 6.175z"/>
</svg>
