<svg xmlns="http://www.w3.org/2000/svg" viewBox="0 0 16 16" fill="#d4d4d8">
  <path d="M4.042 11.334V8.667a.625.625 0 1 1 1.25 0v2.667a.625.625 0 0 1-1.25 0m3.333 0V4.667a.625.625 0 1 1 1.25 0v6.667a.625.625 0 0 1-1.25 0m3.333-.001v-4a.625.625 0 1 1 1.25 0v4a.625.625 0 0 1-1.25 0"/>
  <path d="M13.709 8c0-1.51-.002-2.58-.11-3.391-.107-.793-.307-1.245-.635-1.573-.329-.328-.78-.527-1.573-.634-.81-.109-1.881-.11-3.391-.11s-2.58.001-3.39.11c-.794.107-1.246.306-1.574.634s-.527.78-.634 1.573c-.109.81-.11 1.88-.11 3.39s.001 2.581.11 3.392c.107.793.306 1.244.634 1.572s.78.529 1.573.635c.811.11 1.88.11 3.39.11s2.581 0 3.392-.11c.793-.106 1.244-.306 1.573-.635.328-.328.528-.779.634-1.572.11-.81.11-1.881.11-3.391m1.25 0c0 1.475 0 2.645-.122 3.558-.126.931-.39 1.69-.989 2.29-.6.6-1.359.863-2.29.989-.913.122-2.083.122-3.558.122s-2.644 0-3.558-.122c-.932-.126-1.69-.39-2.29-.99-.599-.599-.864-1.357-.99-2.289-.122-.913-.12-2.083-.12-3.558s-.002-2.644.12-3.558c.126-.932.39-1.69.99-2.29s1.358-.864 2.29-.99c.914-.122 2.083-.12 3.558-.12s2.645-.002 3.558.12c.932.126 1.69.391 2.29.99.599.6.863 1.358.989 2.29.122.914.122 2.083.122 3.558"/>
</svg>
