<svg xmlns="http://www.w3.org/2000/svg" viewBox="0 0 16 16">
  <path d="M5.965 5.682C6.644 4.55 8.153 4.16 9.353 4.63c.624.244 1.175.72 1.51 1.436q.285.61.331 1.41c.74.29 1.27.717 1.618 1.242.662.997.538 2.152.277 2.879l-.012.03-.015.031a5.08 5.08 0 0 1-3.043 2.68 5.8 5.8 0 0 1-1.721.287l-.12-.002h-.014l-.038.001a5.5 5.5 0 0 1-.83-.056 5.6 5.6 0 0 1-1.937-.652C3.89 13.084 2.542 11.362 2.542 8S3.89 2.916 5.359 2.084a5.6 5.6 0 0 1 1.938-.652 5.5 5.5 0 0 1 .829-.056l.04.002.022-.001q.053-.002.142-.002a5.6 5.6 0 0 1 2.015.417c1.192.493 2.51 1.55 3.092 3.716a.625.625 0 0 1-1.207.324c-.47-1.746-1.486-2.522-2.363-2.885a4.4 4.4 0 0 0-1.549-.322l-.09.001-.02.001-.041.003-.042-.003h-.001l-.029-.001h-.129a4 4 0 0 0-.492.043c-.415.06-.96.197-1.5.503-1.03.584-2.182 1.86-2.182 4.828s1.151 4.244 2.182 4.828a4.3 4.3 0 0 0 2.15.545l.043-.002.042.002h-.001l.014.001.075.001a4.5 4.5 0 0 0 1.33-.224 3.83 3.83 0 0 0 2.294-2.007c.174-.51.209-1.195-.15-1.735a1.9 1.9 0 0 0-.664-.595c-.293 1.633-1.692 2.48-2.94 2.48-1.256 0-2.292-.879-2.292-1.957 0-.552.17-1.005.45-1.355.272-.34.62-.55.934-.68a3.5 3.5 0 0 1 1.118-.253l.084-.003.025-.001H8.5q.767.001 1.401.098a2.3 2.3 0 0 0-.17-.546 1.52 1.52 0 0 0-.834-.803c-.716-.28-1.54-.004-1.861.531a.625.625 0 0 1-1.071-.643m1.16 3.655c0 .223.298.708 1.042.708a1.74 1.74 0 0 0 1.716-1.478q.013-.08.022-.159A8 8 0 0 0 8.5 8.295h-.005l-.044.002a2.4 2.4 0 0 0-.711.158c-.186.078-.337.18-.44.309-.094.118-.175.292-.175.573"/>
</svg>
