<svg xmlns="http://www.w3.org/2000/svg" viewBox="0 0 16 16">
  <path d="M8 10.379c.268 0 .506.17.592.425.017.048.258.753.644 1.435.193.343.406.65.624.863.224.22.381.273.471.273.438 0 1.042-.296 1.575-.791.255-.237.465-.494.607-.732.149-.25.192-.428.192-.519 0-.434-.338-.78-.958-1.052a4.6 4.6 0 0 0-1.072-.314l-.07-.011-.017-.002h-.002a.625.625 0 0 1 .148-1.242c1.343.15 2.022-.224 2.39-.603.395-.408.532-.926.593-1.231.164-.82.348-2.016.322-2.986-.013-.494-.08-.861-.182-1.083a.4.4 0 0 0-.111-.163c-.013-.01-.032-.021-.083-.021-.447 0-.988.242-1.594.729-.595.476-1.18 1.129-1.703 1.81a22 22 0 0 0-1.814 2.794.625.625 0 0 1-1.103 0 22 22 0 0 0-1.815-2.795c-.524-.68-1.109-1.333-1.703-1.81-.607-.486-1.147-.728-1.595-.728-.051 0-.07.011-.082.02a.4.4 0 0 0-.111.164c-.103.222-.17.589-.183 1.083-.025.97.159 2.165.323 2.986.06.305.199.823.594 1.231.367.378 1.046.752 2.389.603a.625.625 0 0 1 .146 1.24l.001.001-.002.001-.015.002-.07.01a4.8 4.8 0 0 0-1.073.315c-.62.271-.959.618-.959 1.052 0 .091.045.27.194.519.142.238.351.495.606.732.533.495 1.137.79 1.574.791.09 0 .248-.052.472-.273.217-.213.43-.52.624-.863a9.4 9.4 0 0 0 .644-1.435l.039-.091A.63.63 0 0 1 8 10.379m5.955.954c0 .409-.163.815-.369 1.16a4.7 4.7 0 0 1-.83 1.007c-.633.588-1.53 1.125-2.425 1.125-.562 0-1.018-.307-1.346-.63-.336-.33-.616-.75-.837-1.14A9 9 0 0 1 8 12.58q-.07.136-.147.274c-.221.392-.501.812-.837 1.141-.329.323-.785.63-1.348.63-.895 0-1.791-.537-2.424-1.125a4.7 4.7 0 0 1-.83-1.008c-.206-.344-.37-.75-.37-1.159 0-.775.393-1.321.863-1.697a3.1 3.1 0 0 1-.927-.657c-.654-.673-.85-1.488-.923-1.857-.17-.846-.375-2.15-.346-3.264.015-.548.087-1.118.297-1.573.108-.234.265-.464.495-.638.239-.18.523-.272.833-.272.87 0 1.686.45 2.377 1.004.703.564 1.357 1.302 1.911 2.021A23 23 0 0 1 8 6.415 23 23 0 0 1 9.375 4.4c.554-.719 1.208-1.457 1.912-2.021.69-.554 1.507-1.004 2.376-1.004.31 0 .595.093.833.272.23.174.388.404.496.638.21.455.282 1.025.296 1.573.03 1.113-.175 2.418-.344 3.264-.074.37-.27 1.184-.924 1.857a3.1 3.1 0 0 1-.928.657c.47.376.863.922.863 1.697"/>
</svg>
